<?xml version="1.0" encoding="utf-8"?>
<!-- Generator: Adobe Illustrator 23.0.1, SVG Export Plug-In . SVG Version: 6.00 Build 0)  -->
<svg version="1.1" id="Layer_1" xmlns="http://www.w3.org/2000/svg" xmlns:xlink="http://www.w3.org/1999/xlink" x="0px" y="0px"
	 viewBox="0 0 129 129" style="enable-background:new 0 0 129 129;" xml:space="preserve">
<style type="text/css">
	.st0{display:none;}
	.st1{display:inline;}
</style>
<g class="st0">
	<path class="st1" d="M108.8,27.1c1.6-0.2,2.9-1.4,3.3-3c0.4-1.5-0.1-3.2-1.3-4.2C100.4,11.1,87.1,6.2,73.4,6.2
		c-32.1,0-58.3,26.1-58.3,58.3s26.1,58.3,58.3,58.3c14.4,0,28.3-5.4,39.1-15.1c1.2-1.1,1.6-2.8,1.2-4.3s-1.8-2.6-3.4-2.8
		c-18.6-2.2-32.7-18-32.7-36.8C77.5,45.3,90.7,29.9,108.8,27.1L108.8,27.1z M69.3,63.7c0,19.8,12.8,36.9,31,43
		c-8,5.1-17.3,7.9-26.9,7.9c-27.6,0-50-22.5-50-50s22.5-50,50-50c8.9,0,17.6,2.4,25.2,6.8C81.2,27.8,69.3,44.4,69.3,63.7z"/>
</g>
<g>
	<path d="M64.5,41.5c12.7,0,23,10.3,23,23s-10.3,23-23,23s-23-10.3-23-23S51.8,41.5,64.5,41.5 M64.5,34.5c-16.6,0-30,13.4-30,30
		s13.4,30,30,30s30-13.4,30-30S81.1,34.5,64.5,34.5L64.5,34.5z"/>
</g>
<g>
	<path d="M92.6,7.5c15.9,0,28.9,13,28.9,28.9v56.2c0,15.9-13,28.9-28.9,28.9H36.4c-15.9,0-28.9-13-28.9-28.9V36.4
		c0-15.9,13-28.9,28.9-28.9H92.6 M92.6,0.5H36.4C16.6,0.5,0.5,16.6,0.5,36.4v56.2c0,19.8,16.1,35.9,35.9,35.9h56.2
		c19.8,0,35.9-16.1,35.9-35.9V36.4C128.5,16.6,112.4,0.5,92.6,0.5L92.6,0.5z"/>
</g>
</svg>
